HIERARCHY
ROOT base
{
	OFFSET 0.0 0.0 0.0
	CHANNELS 6 Xposition Yposition Zposition Zrotation Yrotation Xrotation
	JOINT root
	{
		OFFSET 0 0 0
		CHANNELS 6 Xposition Yposition Zposition Zrotation Yrotation Xrotation
		JOINT chest
		{
			OFFSET 0 4.72302 0
			CHANNELS 3 Zrotation Yrotation Xrotation
			JOINT neck
			{
				OFFSET 0 4.47788 0
				CHANNELS 3 Zrotation Yrotation Xrotation
				End Site
				{
					OFFSET 0.0 0.0 0.0
				}
			}
			JOINT right_shoulder
			{
				OFFSET -0.481 4.87 3.6622
				CHANNELS 3 Zrotation Yrotation Xrotation
				JOINT right_elbow
				{
					OFFSET 0 -5.49576 0
					CHANNELS 3 Zrotation Yrotation Xrotation
					JOINT right_wrist
					{
						OFFSET 0 -5.17894 0
						CHANNELS 3 Zrotation Yrotation Xrotation
						End Site
						{
							OFFSET 0.0 0.0 0.0
						}
					}
				}
			}
			JOINT left_shoulder
			{
				OFFSET -0.481 4.87 -3.6622
				CHANNELS 3 Zrotation Yrotation Xrotation
				JOINT left_elbow
				{
					OFFSET 0 -5.49576 0
					CHANNELS 3 Zrotation Yrotation Xrotation
					JOINT left_wrist
					{
						OFFSET 0 -5.17894 0
						CHANNELS 3 Zrotation Yrotation Xrotation
						End Site
						{
							OFFSET 0.0 0.0 0.0
						}
					}
				}
			}
		}
		JOINT right_hip
		{
			OFFSET 0 0 1.69774
			CHANNELS 3 Zrotation Yrotation Xrotation
			JOINT right_knee
			{
				OFFSET 0 -8.43092 0
				CHANNELS 3 Zrotation Yrotation Xrotation
				JOINT right_ankle
				{
					OFFSET 0 -8.1974 0
					CHANNELS 3 Zrotation Yrotation Xrotation
					End Site
					{
						OFFSET 0.0 0.0 0.0
					}
				}
			}
		}
		JOINT left_hip
		{
			OFFSET 0 0 -1.69774
			CHANNELS 3 Zrotation Yrotation Xrotation
			JOINT left_knee
			{
				OFFSET 0 -8.43092 0
				CHANNELS 3 Zrotation Yrotation Xrotation
				JOINT left_ankle
				{
					OFFSET 0 -8.1974 0
					CHANNELS 3 Zrotation Yrotation Xrotation
					End Site
					{
						OFFSET 0.0 0.0 0.0
					}
				}
			}
		}
	}
	JOINT red_arrow
	{
		OFFSET 0 0 0
		CHANNELS 3 Zrotation Yrotation Xrotation
		End Site
		{
			OFFSET 0.0 0.0 0.0
		}
	}
	JOINT blue_arrow
	{
		OFFSET 0 0 0
		CHANNELS 3 Zrotation Yrotation Xrotation
		End Site
		{
			OFFSET 0.0 0.0 0.0
		}
	}
}
MOTION
Frames: 11
Frame Time: 0.0333333333333333
258.687462088466 0 15.4628633633256 0 -4.56883842282769 0 0 17.6047327756882 0 -3.94056808673801 -4.25642192456404 3.40709605002396 -2.24963815273264 -0.846388296834061 -0.135406553800721 -6.73024094198377 -0.377151273727522 -2.85509611407112 0.0823160774952702 7.65794111467157 -13.5351141024055 -0.0198763674179995 0 0 0 0 0 -1.9625517269997 -30.8229559084277 24.4920160475539 27.1328445156056 0 0 0 0 0 31.6616530073996 1.91924585828916 -4.36148247240075 -100.448661972224 0 0 -14.434847343147 0.238903347254955 -4.51406658349588 1.19863724698798 0.585473614800362 -5.04924520373152 -4.36279699272399 0 0 3.3914493880851 -10.9414857877327 2.55932827279681 0 0 0 0 0 0
259.646032162756 0 15.7593658857048 0 -4.72547875828729 0 0 17.6620188236237 0 -2.90967328943099 -2.97233638858566 1.7806043173518 -3.23255006992511 -0.0456534219901869 -0.287305374326868 -3.40697256499046 -0.907057018859565 -1.70390516550729 -3.16282869703236 4.42970563308791 -11.5643980527742 -5.17223125410345E-06 0 0 0 0 0 -4.47093339731852 -35.5793005168679 32.3442574113939 36.3550034989973 0 0 0 0 0 38.7445033132674 -1.65615810204715 -7.10958790333027 -99.4459423907415 0 0 -2.29433601784723 -4.21979025968747 -5.52847599427224 -3.20168578873179 -0.678754989670833 -2.99068967489241 -3.78757681695891 0 0 3.8941585287939 -10.8772688752229 2.5506837896662 0 0 0 0 0 0
260.556685493141 0 16.00980842188 0 -4.85211525713019 0 0 17.7253098368645 0 -2.92694080182648 -2.40295830904633 0.468751072544794 -3.59645506479478 0.799746449152176 -0.162166715344539 -0.767069895554359 -1.572515487353 -1.24057941315331 -6.00840162241182 2.47112568943005 -11.5129170507299 -4.79657120801042E-06 0 0 0 0 0 -7.43988496618616 -38.4051625036232 39.5960684616267 43.8294809983227 0 0 0 0 0 45.1958652385888 -6.16765326072735 -9.81445099097263 -91.0692344680978 0 0 7.69542619351616 -8.91872454940713 -7.62991386288792 -6.32517564881569 -1.36115400876929 -1.28500870883038 -3.37258092629128 0 0 2.95250801871495 -10.3455647187075 2.90630523654537 0 0 0 0 0 0
261.475903871655 0 16.2497583310585 0 -4.97117981223976 0 0 17.7976752281189 0 -3.29976188740455 -2.2584797888829 -0.491920952009872 -3.89362494773823 1.77393924462804 -0.0745407451507338 1.34121127745447 -2.36145721223662 -1.1176774020124 -9.30194943445892 0.0896027700938647 -10.3305472768154 -9.23619400567431E-06 0 0 0 0 0 -8.25360479143417 -39.0210235781241 42.1776731038581 48.664199666465 0 0 0 0 0 48.7068689677385 -9.96919135362286 -10.9775439575038 -77.7037905266226 0 0 15.234707746679 -12.944774875207 -9.11971312160645 -8.2655657412225 -1.81127844048696 -0.0526087772867669 -4.48622619498893 0 0 0.994305626202176 -9.38800355837425 3.58638853455528 0 0 0 0 0 0
262.43214315325 0 16.4747450366616 0 -5.12763885205475 0 0 17.8699055075645 0 -3.51414439049589 -2.96714213703341 -1.19590927522529 -4.30775614385509 2.42048532866479 0.109470969342865 2.29174462301318 -2.99969762961193 -1.23131666797968 -11.7088181270194 -1.02391065371041 -10.2396935193416 -5.63896365916762E-06 0 0 0 0 0 -7.41707036238419 -38.3526945320639 41.526831492466 50.5347255178484 0 0 0 0 0 48.2716870598138 -12.1915823994937 -9.9616736173862 -60.5984082032153 0 0 17.1219779596364 -13.860975974831 -8.87641557888927 -9.95984025414085 -2.02234298882722 0.584229131444224 -6.37304887773203 0 0 -2.37223385488016 -7.62781231662104 4.46941627050197 0 0 0 0 0 0
263.400159786642 0 16.706870970875 0 -5.31377147349502 0 0 17.92794008255 0 -3.80813883457448 -3.52873107964729 -1.54779220478412 -5.15447231901679 2.67487725676141 -0.0628225124427599 2.63014149824099 -3.4615006631601 -1.53266200418424 -13.0385956705988 -1.84213121953388 -9.4412021914158 -7.41481603512117E-06 0 0 0 0 0 -5.4904377996086 -37.797775471545 39.1173981073573 50.5210104979951 0 0 0 0 0 45.2316471967306 -12.8693193714489 -7.72552326563399 -42.7897896028634 0 0 15.2193321013096 -12.33649848401 -7.0024825520414 -10.4850416322942 -2.16908966189088 0.747519215110042 -9.90067851327718 0 0 -7.06260357584444 -5.82095836704475 5.36498578172653 0 0 0 0 0 0
264.408748978376 0 16.9324865933508 0 -5.52064042842897 0 0 17.9698068499565 0 -4.24935737048374 -3.91973896294327 -1.60667291958788 -5.9730156301072 2.42168262543364 -0.292040595029067 1.85390320933831 -3.72155197822405 -1.90523542849941 -13.1278424704555 -1.65283666451324 -9.51284742783131 -3.71513376299292E-06 0 0 0 0 0 -3.14267814972712 -37.1370056351839 35.9574095973725 49.289073183062 0 0 0 0 0 41.0879100328524 -12.4765960264368 -5.32742830122654 -28.7203819692971 0 0 10.888369750979 -9.10620206618553 -4.69717754821623 -10.4752257370039 -2.07755319367406 0.516025471257564 -13.4769766617533 0 0 -14.4529501187359 -4.07245217994095 6.31699738493857 0 0 0 0 0 0
265.412123839557 0 17.1653413884342 0 -5.70635542210211 0 0 18.0046643614769 0 -5.11635419040293 -3.51456107762065 -1.43243526374918 -7.39185090943988 1.73217270637245 -0.796430399850856 0.386963163504311 -3.79511585928912 -2.30780081628247 -12.0486235967479 -1.24000023665782 -8.99538822221369 -2.11004124588828E-06 0 0 0 0 0 0.0982365415865848 -36.0048735639345 31.5536612824559 48.4858190310064 0 0 0 0 0 36.570690336223 -11.6642732406521 -3.23851385747361 -19.2045914459393 0 0 3.64190056391543 -4.34809683818632 -2.80492365071808 -8.35342991074753 -1.87060873351605 0.193369823194222 -18.4380239474631 0 0 -26.6948300246612 -2.37369717919693 7.63592395167047 0 0 0 0 0 0
266.444094330072 0 17.419841680117 0 -5.84823488478002 0 0 17.9555022358894 0 -6.02167637584271 -2.6808573749158 -1.35536664966924 -9.08689173245075 0.97180480885822 -1.16773808376587 -2.16468543407804 -3.84926339231553 -2.6584159155678 -10.8409640531481 -0.549791806896545 -8.42328727393798 -6.23403145580662E-05 0 0 0 0 0 3.43444773732656 -35.0392760235106 26.8904846707196 46.0623278946078 0 0 0 0 0 31.5048059820111 -10.4393388575454 -1.07482571090774 -13.7376200955755 0 0 -9.02338361041266 1.94487833636152 -2.95859028938175 -5.71555306924358 -1.32080755691626 0.0645619700533738 -21.5476861331649 0 0 -46.9468414982583 0.170978048152254 9.73340350311629 0 0 0 0 0 0
267.551967163384 0 17.6766792322509 0 -5.90847458230471 0 0 17.7063546895981 0 -6.21783281948961 -1.13782296120463 -1.02567913960686 -11.1682907152937 0.180969488758499 -1.73701637555208 -5.20083076314065 -3.88605595210623 -2.93807734101702 -9.80266879074225 -0.170190416033585 -7.23358099897571 -8.24521499624112E-06 0 0 0 0 0 6.23062248616295 -32.3406172283205 21.2154589737781 41.2579660022317 0 0 0 0 0 24.7201621474006 -7.95754852684663 0.424316904206494 -9.35515215804191 0 0 -23.5192726572154 5.11154092900584 -5.63598448135544 -2.59708695217041 -0.731611590888219 -0.230746400650762 -26.7506185919152 0 0 -60.4544306022589 1.66859766587982 8.14359669090386 0 0 0 0 0 0
268.582107782364 0 17.9401418669149 0 -5.94099614961281 0 0 17.3878693342209 0 -7.50833344972135 -0.612612143351802 -1.26627290142713 -11.5526984546519 0.25078798584429 -1.77390827791335 -6.79975735193269 -3.7299680477621 -2.61532441114198 -8.11536491853706 -1.70415352758552 -4.19866866523278 -2.21446448439029E-05 0 0 0 0 0 6.68357850762448 -25.5543828359206 15.8740438472202 40.0662380109425 0 0 0 0 0 19.4573968674107 -5.92681111441943 1.32812790828332 -6.41746346347051 0 0 -6.24530223099365 2.60145895854992 -1.19443105419331 3.40283761125608 -0.472008097218889 -0.285140693033817 -36.0864609513999 0 0 -63.6153815780214 -0.0329471417430523 7.56409102459241 0 0 0 0 0 0
